PathFileType	4	(X/Y/Z)	 s07c0103.trc
DataRate	CameraRate	NumFrames	NumMarkers	Units	OrigDataRate	OrigDataStartFrame	OrigNumFrames
200	200	6	47	mm	200	1751	2000
Frame#	Time	racr			lacr			c7			jug			rlel			rdr			llel			ldr			s2			lic			ric			lasi			rasi			rpsi			lpsi			rgt			lgt			rth1			rth2			rth3			rth4			rlfc			rmfc			rsh1			rsh2			rsh3			rsh4			rcal			rtoe			rmt5			lth1			lth2			lth4			lth3			llfc			lmfc			lsh1			lsh2			lsh3			lsh4			llmal			lcal			ltoe			lmt5			SBIKE			LBIKE			RBIKE			
		X1	Y1	Z1	X2	Y2	Z2	X3	Y3	Z3	X4	Y4	Z4	X5	Y5	Z5	X6	Y6	Z6	X7	Y7	Z7	X8	Y8	Z8	X9	Y9	Z9	X10	Y10	Z10	X11	Y11	Z11	X12	Y12	Z12	X13	Y13	Z13	X14	Y14	Z14	X15	Y15	Z15	X16	Y16	Z16	X17	Y17	Z17	X18	Y18	Z18	X19	Y19	Z19	X20	Y20	Z20	X21	Y21	Z21	X22	Y22	Z22	X23	Y23	Z23	X24	Y24	Z24	X25	Y25	Z25	X26	Y26	Z26	X27	Y27	Z27	X28	Y28	Z28	X29	Y29	Z29	X30	Y30	Z30	X31	Y31	Z31	X32	Y32	Z32	X33	Y33	Z33	X34	Y34	Z34	X35	Y35	Z35	X36	Y36	Z36	X37	Y37	Z37	X38	Y38	Z38	X39	Y39	Z39	X40	Y40	Z40	X41	Y41	Z41	X42	Y42	Z42	X43	Y43	Z43	X44	Y44	Z44	X45	Y45	Z45	X46	Y46	Z46	X47	Y47	Z47	
1751	8.7550	488.546440	1439.489935	-103.967438	475.585840	1438.539046	-349.701970	447.353304	1473.456018	-228.425767	NaN	NaN	NaN	536.623510	1125.617918	49.850673	716.132557	909.651356	-53.566409	544.202002	1130.292943	-476.632721	730.976672	907.394269	-400.764878	-143.419389	1225.777248	-220.373168	19.833451	1274.475339	-365.802880	36.776363	1265.371949	-72.791700	48.003276	1197.678247	-343.450756	46.516045	1213.364537	-90.933197	-113.948632	1265.425581	-169.523612	-102.108600	1276.025411	-276.667421	-22.198798	1144.708335	-29.508985	-41.558106	1122.988043	-395.283591	121.464876	1071.590153	-37.723787	203.336437	1044.512325	-55.350921	263.160893	983.815058	-60.223626	219.433003	1074.525025	-71.540198	365.015433	894.175508	-104.323310	350.241242	877.775007	-207.062950	327.445475	756.424942	-73.663777	320.658425	668.792075	-90.076642	278.092503	593.887123	-80.354986	333.946125	666.976850	-128.498471	159.227263	425.047881	-99.925975	448.184096	398.567088	-122.621556	372.325188	367.546813	-50.316095	31.912895	1023.742859	-407.520553	107.314344	977.862213	-410.974561	133.247677	1001.490345	-402.022699	150.735911	899.928546	-412.182553	256.233710	756.120154	-388.555810	250.657207	736.831728	-292.991081	164.022589	639.361772	-408.855363	130.964161	561.919528	-389.798402	60.595521	505.729002	-395.539210	138.156877	561.017462	-348.342367	-27.742810	409.621296	-393.462519	-104.497571	413.298579	-360.710213	131.415545	244.459272	-355.451796	49.999387	266.057540	-420.624437	-258.528958	967.571061	-231.856991	-75.506873	83.732427	-437.632673	-82.312305	79.647096	-39.962405	
1752	8.7600	488.291112	1438.994460	-105.477573	474.463102	1438.301642	-351.149110	446.573307	1472.924829	-229.814915	NaN	NaN	NaN	537.110814	1125.694175	48.985398	716.631457	909.398177	-53.714947	543.602918	1129.930296	-476.883667	730.399247	907.024912	-400.074377	-144.545055	1225.426538	-219.560292	18.253615	1274.315362	-365.287372	36.561772	1264.423128	-72.890040	45.562680	1197.027692	-341.396701	46.023241	1212.279455	-90.285412	-114.605896	1264.827073	-168.300057	-103.406748	1275.680647	-275.730438	-23.154867	1143.075791	-29.468727	-42.765722	1123.239014	-395.249850	119.612184	1066.740932	-37.322319	200.806035	1037.779934	-54.943049	259.126405	975.606997	-59.983824	217.559752	1067.488735	-71.038030	359.243974	884.502278	-103.698101	344.482793	868.357335	-206.429265	323.949824	745.592546	-73.395048	318.686406	658.138748	-90.257314	277.272256	582.558279	-80.098310	331.238627	656.774678	-128.418960	160.748869	412.562587	-99.673073	450.128753	389.585872	-122.609457	374.644330	357.474426	-50.304165	32.287562	1025.035454	-406.438954	108.744023	981.053172	-410.983381	134.190718	1005.328995	-402.012464	153.860035	904.268472	-412.633546	262.104300	762.465882	-389.306068	256.920053	742.707915	-293.745744	168.622350	646.833538	-409.206119	134.467793	570.067370	-390.009218	63.168673	515.030265	-395.628105	141.815749	569.135087	-348.611882	-26.602400	420.670320	-393.167271	-102.978039	425.604204	-359.727264	128.907662	252.019534	-355.292401	48.024805	275.522449	-420.532866	-258.515093	967.570792	-231.806144	-75.491997	83.761787	-437.621435	-82.287234	79.657205	-39.951527	
1753	8.7650	487.946961	1438.482898	-107.121295	473.303292	1437.989585	-352.473040	445.700239	1472.427208	-231.177258	NaN	NaN	NaN	537.632933	1125.690611	48.060337	717.122222	909.162498	-53.920854	542.684877	1129.330645	-476.660579	730.348518	907.049317	-400.033470	-145.658765	1224.839663	-218.789359	16.621902	1273.953201	-364.781110	36.303294	1263.244803	-72.893101	44.049133	1196.790402	-341.062770	45.555024	1211.095991	-89.885116	-115.369254	1264.174522	-167.530188	-104.722966	1275.232090	-274.955115	-23.976988	1141.352003	-29.248095	-43.980084	1123.404638	-395.280553	117.700007	1061.680927	-36.940702	198.159730	1030.831452	-54.548426	254.894250	967.217395	-59.774876	215.607654	1060.145263	-70.634196	353.219041	874.693968	-102.899801	338.288999	858.175728	-205.199171	320.459504	735.475780	-72.365038	317.025971	647.631079	-89.735507	275.918057	571.315939	-79.797431	327.938851	646.723438	-128.206467	161.655850	399.759486	-99.747339	451.359883	380.391741	-122.362213	376.324275	347.364626	-50.373732	32.763568	1026.624247	-406.396335	110.228814	984.415633	-411.073926	135.113882	1009.254611	-402.231650	157.138934	908.575896	-412.934084	268.187162	769.153216	-389.922145	263.406494	749.465007	-294.269645	173.734808	654.646118	-409.488064	138.195810	578.353260	-390.045205	66.169299	524.465533	-395.607575	145.744139	577.503859	-348.835851	-24.665557	432.079872	-393.403969	-100.702728	433.087333	-349.635783	126.945435	259.739036	-355.270970	46.566213	285.095137	-420.439234	-258.519487	967.572385	-231.740684	-75.483196	83.773470	-437.623451	-82.293684	79.599046	-39.927583	
1754	8.7700	487.558402	1438.019464	-108.626332	472.128878	1437.650658	-353.829210	444.772166	1471.814501	-232.512272	NaN	NaN	NaN	538.160342	1125.680651	47.145789	717.636536	908.950983	-54.220679	541.906877	1128.749771	-476.783196	730.857762	907.539276	-400.674414	-146.764384	1224.148158	-218.153515	15.035916	1273.562827	-364.385905	35.969522	1262.090414	-72.599865	41.967245	1195.856595	-339.542262	45.069562	1209.759612	-89.570459	-116.203282	1263.407737	-166.764224	-106.090770	1274.600943	-274.057358	-24.972529	1139.527810	-29.135030	-45.211356	1123.459268	-395.387226	115.681396	1056.672924	-36.631958	195.349686	1023.657974	-54.283014	250.515958	958.699029	-59.565181	213.485819	1052.559898	-70.331088	346.681567	864.421516	-102.936462	331.787176	848.059319	-204.317895	315.580856	724.874898	-71.501639	313.976111	637.003752	-89.465685	273.958038	560.213739	-79.473783	324.370592	636.830368	-128.062004	162.513859	387.019329	-99.581836	452.062218	371.089744	-122.228797	377.408755	337.071627	-50.382329	33.332336	1027.974126	-406.399684	111.800179	987.690431	-411.275752	136.111316	1013.246573	-402.493548	160.587720	913.153837	-413.220372	274.468141	776.495799	-390.904663	270.002236	756.574304	-294.644985	179.154110	662.690258	-409.774054	142.733889	587.173030	-390.352705	69.688038	534.103014	-395.691642	150.102834	585.944732	-349.033123	-22.356203	443.359665	-393.319500	-98.073642	452.317221	-360.792409	125.513288	267.787253	-355.372963	45.789635	294.570700	-420.242377	-258.539342	967.547605	-231.613420	-75.483777	83.788762	-437.627309	-82.287506	79.697544	-39.920683	
1755	8.7750	487.072233	1437.467421	-110.174168	471.010496	1437.278319	-355.153141	443.797928	1471.104510	-233.769523	NaN	NaN	NaN	538.782986	1125.478901	46.100096	718.236167	908.736444	-54.516865	541.154420	1128.183480	-476.918118	730.293353	907.156744	-400.017809	-147.861832	1223.267037	-217.416189	13.441947	1272.955949	-364.009865	35.660884	1260.766583	-72.385346	40.699374	1195.441787	-339.749228	44.633418	1208.251105	-89.482339	-116.942270	1262.377023	-166.037732	-107.407578	1273.821791	-273.278879	-25.590037	1137.753996	-28.928721	-46.486919	1123.352940	-395.534539	113.716095	1051.263786	-36.317639	192.466693	1016.404380	-53.918899	245.879816	949.930917	-59.326881	211.250087	1044.840154	-70.057921	340.200474	854.439473	-102.201407	324.989422	837.363309	-203.269040	310.613339	714.513985	-70.920543	310.373254	626.736014	-88.976077	272.005902	549.327229	-78.611469	320.437345	626.792697	-127.729915	162.501638	374.568517	-99.423348	452.133771	361.678559	-122.294110	377.901286	326.759217	-50.362044	33.920569	1029.320960	-406.523833	113.438781	991.111312	-411.504191	137.062919	1017.329765	-402.846954	164.174028	917.943361	-413.473229	280.795992	783.758397	-391.390277	278.173161	763.203854	-295.745580	184.785514	670.747898	-409.917919	147.310155	595.919096	-390.548939	73.527967	543.841240	-395.799764	154.710446	594.586259	-349.214928	-19.753165	454.092630	-392.993619	-95.828390	464.145196	-359.835384	124.616636	276.171941	-355.902739	45.559593	304.326477	-420.116188	-258.574855	967.525518	-231.376535	-75.505891	83.776756	-437.624029	-82.307292	79.676563	-39.932227	
1756	8.7800	486.552092	1436.911190	-111.628735	469.857143	1436.891283	-356.423006	442.774357	1470.429594	-235.006934	NaN	NaN	NaN	539.257122	1125.407153	45.124121	718.810821	908.604648	-54.764312	540.390143	1127.595050	-477.157155	730.257645	907.207673	-400.037781	-148.904385	1222.184911	-216.704224	11.785259	1272.255187	-363.620680	35.259825	1259.317581	-72.135561	39.390797	1194.838961	-339.681717	44.160605	1206.612010	-89.347600	-117.715306	1261.314569	-165.423588	-108.715836	1272.833493	-272.534471	-26.528719	1135.716396	-28.861564	-47.795474	1123.148433	-395.713170	111.635635	1045.810231	-36.023244	189.346919	1008.992576	-53.791045	241.210111	941.223241	-59.304122	208.847459	1036.991830	-69.878441	333.385669	844.415629	-101.940321	317.822869	826.685112	-203.171287	304.951770	704.422874	-69.982732	306.131028	616.311312	-88.458447	269.042298	538.440684	-78.041062	316.085935	616.704787	-127.219764	162.008156	362.327582	-99.191300	451.696022	351.859988	-122.474961	377.836502	316.302771	-50.264691	34.572626	1030.693570	-406.743290	115.083253	994.693555	-411.852207	138.061440	1021.607302	-403.219448	167.864005	922.925182	-413.678853	287.273237	791.346333	-391.942501	283.716337	771.337203	-295.169795	190.466069	679.138986	-409.965998	152.155890	604.693044	-390.694202	77.768033	553.612104	-395.983580	159.454705	603.412128	-349.383077	-16.496170	465.095099	-393.043867	-92.446749	476.337614	-359.514540	124.367183	284.518313	-355.916917	45.859935	314.184402	-420.065701	-258.555305	967.609230	-231.556387	-75.661296	83.702437	-437.463189	-82.315648	79.608192	-39.901658	
